HIERARCHY
ROOT mixamorig:Hips
{
	OFFSET 0.000000 201.639420 0.000000
	CHANNELS 6 Xposition Yposition Zposition Xrotation Yrotation Zrotation
	JOINT mixamorig:Spine
	{
		OFFSET 0.006200 19.524994 -2.481800
		CHANNELS 3 Xrotation Yrotation Zrotation
		JOINT mixamorig:Spine1
		{
			OFFSET -0.000900 22.835007 -2.825400
			CHANNELS 3 Xrotation Yrotation Zrotation
			JOINT mixamorig:Spine2
			{
				OFFSET -0.020600 26.552490 -3.193300
				CHANNELS 3 Xrotation Yrotation Zrotation
				JOINT mixamorig:Neck
				{
					OFFSET -0.060000 30.701813 1.352200
					CHANNELS 3 Xrotation Yrotation Zrotation
					JOINT mixamorig:Head
					{
						OFFSET -0.087200 22.547607 3.670900
						CHANNELS 3 Xrotation Yrotation Zrotation
						JOINT mixamorig:HeadTop_End
						{
							OFFSET -0.830600 40.355194 7.893500
							CHANNELS 3 Xrotation Yrotation Zrotation
							End Site
							{
								OFFSET 0.000000 30.592346 0.000000
							}
						}
						JOINT mixamorig:RightEye
						{
							OFFSET -6.302100 18.118591 16.197100
							CHANNELS 3 Xrotation Yrotation Zrotation
							End Site
							{
								OFFSET 0.000000 30.592346 0.000000
							}
						}
						JOINT mixamorig:LeftEye
						{
							OFFSET 6.741500 18.382690 16.401899
							CHANNELS 3 Xrotation Yrotation Zrotation
							End Site
							{
								OFFSET 0.000000 30.592346 0.000000
							}
						}
					}
				}
				JOINT mixamorig:LeftShoulder
				{
					OFFSET 11.924900 18.230499 1.425400
					CHANNELS 3 Xrotation Yrotation Zrotation
					JOINT mixamorig:LeftArm
					{
						OFFSET 25.435989 -0.697632 -5.229300
						CHANNELS 3 Xrotation Yrotation Zrotation
						JOINT mixamorig:LeftForeArm
						{
							OFFSET 54.684776 0.000000 0.000000
							CHANNELS 3 Xrotation Yrotation Zrotation
							JOINT mixamorig:LeftHand
							{
								OFFSET 55.098175 0.000000 0.000000
								CHANNELS 3 Xrotation Yrotation Zrotation
								JOINT mixamorig:LeftHandMiddle1
								{
									OFFSET 23.369751 0.000000 0.000000
									CHANNELS 3 Xrotation Yrotation Zrotation
									JOINT mixamorig:LeftHandMiddle2
									{
										OFFSET 6.378677 0.000000 0.000000
										CHANNELS 3 Xrotation Yrotation Zrotation
										JOINT mixamorig:LeftHandMiddle3
										{
											OFFSET 6.148331 0.000000 0.000000
											CHANNELS 3 Xrotation Yrotation Zrotation
											JOINT mixamorig:LeftHandMiddle4
											{
												OFFSET 6.582504 0.000000 0.000000
												CHANNELS 3 Xrotation Yrotation Zrotation
												End Site
												{
													OFFSET -1.168900 6.395691 1.028606
												}
											}
										}
									}
								}
								JOINT mixamorig:LeftHandThumb1
								{
									OFFSET 7.235672 -3.848206 5.434273
									CHANNELS 3 Xrotation Yrotation Zrotation
									JOINT mixamorig:LeftHandThumb2
									{
										OFFSET 6.568451 -3.792297 3.792300
										CHANNELS 3 Xrotation Yrotation Zrotation
										JOINT mixamorig:LeftHandThumb3
										{
											OFFSET 6.063080 -3.500519 3.500518
											CHANNELS 3 Xrotation Yrotation Zrotation
											JOINT mixamorig:LeftHandThumb4
											{
												OFFSET 4.793182 -2.767334 2.767349
												CHANNELS 3 Xrotation Yrotation Zrotation
												End Site
												{
													OFFSET 0.101639 6.054260 1.275483
												}
											}
										}
									}
								}
								JOINT mixamorig:LeftHandIndex1
								{
									OFFSET 23.101074 -0.309540 4.992809
									CHANNELS 3 Xrotation Yrotation Zrotation
									JOINT mixamorig:LeftHandIndex2
									{
										OFFSET 6.226883 0.000000 0.000000
										CHANNELS 3 Xrotation Yrotation Zrotation
										JOINT mixamorig:LeftHandIndex3
										{
											OFFSET 6.094330 0.000000 0.000000
											CHANNELS 3 Xrotation Yrotation Zrotation
											JOINT mixamorig:LeftHandIndex4
											{
												OFFSET 5.482605 0.000000 0.000000
												CHANNELS 3 Xrotation Yrotation Zrotation
												End Site
												{
													OFFSET -1.427902 5.233032 0.797164
												}
											}
										}
									}
								}
								JOINT mixamorig:LeftHandRing1
								{
									OFFSET 22.299240 0.021149 -3.964172
									CHANNELS 3 Xrotation Yrotation Zrotation
									JOINT mixamorig:LeftHandRing2
									{
										OFFSET 6.321869 0.000000 0.000000
										CHANNELS 3 Xrotation Yrotation Zrotation
										JOINT mixamorig:LeftHandRing3
										{
											OFFSET 5.899796 0.000000 0.000000
											CHANNELS 3 Xrotation Yrotation Zrotation
											JOINT mixamorig:LeftHandRing4
											{
												OFFSET 6.517899 0.000000 0.000000
												CHANNELS 3 Xrotation Yrotation Zrotation
												End Site
												{
													OFFSET -1.637299 6.232208 0.980890
												}
											}
										}
									}
								}
								JOINT mixamorig:LeftHandPinky1
								{
									OFFSET 20.463791 -0.302338 -8.562233
									CHANNELS 3 Xrotation Yrotation Zrotation
									JOINT mixamorig:LeftHandPinky2
									{
										OFFSET 6.908646 0.000000 0.000000
										CHANNELS 3 Xrotation Yrotation Zrotation
										JOINT mixamorig:LeftHandPinky3
										{
											OFFSET 4.622849 0.000000 0.000000
											CHANNELS 3 Xrotation Yrotation Zrotation
											JOINT mixamorig:LeftHandPinky4
											{
												OFFSET 5.216080 0.000000 0.000000
												CHANNELS 3 Xrotation Yrotation Zrotation
												End Site
												{
													OFFSET -0.606308 5.116241 0.814926
												}
											}
										}
									}
								}
							}
						}
					}
				}
				JOINT mixamorig:RightShoulder
				{
					OFFSET -12.001300 18.284088 1.348900
					CHANNELS 3 Xrotation Yrotation Zrotation
					JOINT mixamorig:RightArm
					{
						OFFSET -25.308500 -0.751312 -5.164599
						CHANNELS 3 Xrotation Yrotation Zrotation
						JOINT mixamorig:RightForeArm
						{
							OFFSET -54.684429 0.000000 0.000000
							CHANNELS 3 Xrotation Yrotation Zrotation
							JOINT mixamorig:RightHand
							{
								OFFSET -55.150291 0.000000 0.000000
								CHANNELS 3 Xrotation Yrotation Zrotation
								JOINT mixamorig:RightHandMiddle1
								{
									OFFSET -23.317566 0.000000 0.000000
									CHANNELS 3 Xrotation Yrotation Zrotation
									JOINT mixamorig:RightHandMiddle2
									{
										OFFSET -6.378403 0.000000 0.000000
										CHANNELS 3 Xrotation Yrotation Zrotation
										JOINT mixamorig:RightHandMiddle3
										{
											OFFSET -6.148193 0.000000 0.000000
											CHANNELS 3 Xrotation Yrotation Zrotation
											JOINT mixamorig:RightHandMiddle4
											{
												OFFSET -6.583389 0.000000 0.000000
												CHANNELS 3 Xrotation Yrotation Zrotation
												End Site
												{
													OFFSET 1.171692 6.395905 1.029786
												}
											}
										}
									}
								}
								JOINT mixamorig:RightHandThumb1
								{
									OFFSET -7.190521 -3.860474 5.435846
									CHANNELS 3 Xrotation Yrotation Zrotation
									JOINT mixamorig:RightHandThumb2
									{
										OFFSET -6.567429 -3.791718 3.791708
										CHANNELS 3 Xrotation Yrotation Zrotation
										JOINT mixamorig:RightHandThumb3
										{
											OFFSET -6.062469 -3.500153 3.500166
											CHANNELS 3 Xrotation Yrotation Zrotation
											JOINT mixamorig:RightHandThumb4
											{
												OFFSET -4.792618 -2.767029 2.767022
												CHANNELS 3 Xrotation Yrotation Zrotation
												End Site
												{
													OFFSET -0.100327 6.053253 1.276754
												}
											}
										}
									}
								}
								JOINT mixamorig:RightHandIndex1
								{
									OFFSET -23.048981 -0.310791 4.992554
									CHANNELS 3 Xrotation Yrotation Zrotation
									JOINT mixamorig:RightHandIndex2
									{
										OFFSET -6.227539 0.000000 0.000000
										CHANNELS 3 Xrotation Yrotation Zrotation
										JOINT mixamorig:RightHandIndex3
										{
											OFFSET -6.095047 0.000000 0.000000
											CHANNELS 3 Xrotation Yrotation Zrotation
											JOINT mixamorig:RightHandIndex4
											{
												OFFSET -5.484772 0.000000 0.000000
												CHANNELS 3 Xrotation Yrotation Zrotation
												End Site
												{
													OFFSET 1.420593 5.237305 0.797056
												}
											}
										}
									}
								}
								JOINT mixamorig:RightHandRing1
								{
									OFFSET -22.246323 0.020569 -3.963762
									CHANNELS 3 Xrotation Yrotation Zrotation
									JOINT mixamorig:RightHandRing2
									{
										OFFSET -6.322128 0.000000 0.000000
										CHANNELS 3 Xrotation Yrotation Zrotation
										JOINT mixamorig:RightHandRing3
										{
											OFFSET -5.900024 0.000000 0.000000
											CHANNELS 3 Xrotation Yrotation Zrotation
											JOINT mixamorig:RightHandRing4
											{
												OFFSET -6.518356 0.000000 0.000000
												CHANNELS 3 Xrotation Yrotation Zrotation
												End Site
												{
													OFFSET 1.636398 6.232697 0.982186
												}
											}
										}
									}
								}
								JOINT mixamorig:RightHandPinky1
								{
									OFFSET -20.411011 -0.303314 -8.561701
									CHANNELS 3 Xrotation Yrotation Zrotation
									JOINT mixamorig:RightHandPinky2
									{
										OFFSET -6.907349 0.000000 0.000000
										CHANNELS 3 Xrotation Yrotation Zrotation
										JOINT mixamorig:RightHandPinky3
										{
											OFFSET -4.623840 0.000000 0.000000
											CHANNELS 3 Xrotation Yrotation Zrotation
											JOINT mixamorig:RightHandPinky4
											{
												OFFSET -5.218353 0.000000 0.000000
												CHANNELS 3 Xrotation Yrotation Zrotation
												End Site
												{
													OFFSET 0.602097 5.118835 0.816273
												}
											}
										}
									}
								}
							}
						}
					}
				}
			}
		}
	}
	JOINT mixamorig:LeftUpLeg
	{
		OFFSET 18.168400 -13.561905 -0.039000
		CHANNELS 3 Xrotation Yrotation Zrotation
		JOINT mixamorig:LeftLeg
		{
			OFFSET 0.577358 -80.825211 -3.695000
			CHANNELS 3 Xrotation Yrotation Zrotation
			JOINT mixamorig:LeftFoot
			{
				OFFSET -0.577356 -83.370262 -6.520700
				CHANNELS 3 Xrotation Yrotation Zrotation
				JOINT mixamorig:LeftToeBase
				{
					OFFSET 0.750401 -20.798306 25.135401
					CHANNELS 3 Xrotation Yrotation Zrotation
					JOINT mixamorig:LeftToe_End
					{
						OFFSET -0.000500 0.001200 19.917799
						CHANNELS 3 Xrotation Yrotation Zrotation
						End Site
						{
							OFFSET 0.000000 19.917805 0.000000
						}
					}
				}
			}
		}
	}
	JOINT mixamorig:RightUpLeg
	{
		OFFSET -18.162500 -13.585098 -0.041000
		CHANNELS 3 Xrotation Yrotation Zrotation
		JOINT mixamorig:RightLeg
		{
			OFFSET -0.595024 -80.945297 -3.631900
			CHANNELS 3 Xrotation Yrotation Zrotation
			JOINT mixamorig:RightFoot
			{
				OFFSET 0.595024 -83.218193 -6.561200
				CHANNELS 3 Xrotation Yrotation Zrotation
				JOINT mixamorig:RightToeBase
				{
					OFFSET -0.753601 -20.807106 25.115000
					CHANNELS 3 Xrotation Yrotation Zrotation
					JOINT mixamorig:RightToe_End
					{
						OFFSET 0.000299 0.001700 19.918200
						CHANNELS 3 Xrotation Yrotation Zrotation
						End Site
						{
							OFFSET 0.000000 19.918203 0.000000
						}
					}
				}
			}
		}
	}
}
MOTION
Frames: 4
Frame Time: 0.033333
0.182692 182.935394 -0.923971 -0.669629 -15.836752 -1.612314 3.772626 1.244530 0.202938 2.523603 1.177439 -0.059023 2.503913 1.224027 -0.090937 0.457847 0.824230 4.848788 8.545305 11.130796 -0.783158 -0.000000 0.000000 0.000000 -0.000000 0.000000 0.000000 -0.000000 0.000000 0.000000 0.513443 1.082367 14.986782 -49.547456 -53.697182 -56.631998 0.000010 -52.589547 0.000007 -101.282526 -0.136439 2.488780 0.796780 3.220211 -27.788715 0.800497 3.227236 -27.854650 0.202687 1.661521 -13.908057 0.000001 -0.000002 0.000000 35.234555 -17.219580 -17.236901 29.406854 28.726546 -29.411805 9.113596 14.378711 -9.922561 0.000002 -0.000001 -0.000001 0.797684 3.221915 -27.804759 0.799607 3.225522 -27.838623 0.202681 1.661520 -13.908052 0.000000 -0.000000 -0.000001 0.797681 3.221926 -27.804754 0.799618 3.225526 -27.838622 0.202688 1.661517 -13.908056 0.000002 -0.000001 -0.000001 2.684958 6.814119 -27.459509 0.809066 -0.835572 -28.291870 0.202687 1.661525 -13.908057 -0.000001 -0.000001 0.000001 0.384723 -1.325534 -0.769391 3.865890 95.192135 -10.302294 -0.000000 25.659964 0.000001 -50.084257 -3.447583 -9.781621 3.635321 -6.110993 61.464504 7.728633 -6.904490 96.464469 2.305154 -5.174768 47.998765 -0.000001 0.000003 -0.000001 40.606636 -3.110500 26.124237 -37.849480 -44.264991 -46.874950 -12.282896 -22.415195 -17.633366 0.000000 0.000000 0.000000 3.635328 -6.111000 61.464497 7.728589 -6.904441 96.464442 2.305156 -5.174783 47.998758 0.000004 0.000001 -0.000001 3.635332 -6.111014 61.464497 7.728613 -6.904480 96.464456 2.305149 -5.174767 47.998758 -0.000000 0.000002 0.000000 3.635322 -6.110992 61.464504 7.728610 -6.904466 96.464462 2.305120 -5.174775 47.998755 0.000000 -0.000001 0.000001 -37.419540 16.803438 14.200225 51.139126 3.865581 10.227029 -15.467619 1.474020 -10.726567 -0.201341 -0.000006 -0.000005 -0.000000 0.000000 -0.000000 -33.555193 -20.828515 -11.217487 50.813254 -3.564362 -10.231669 -18.491487 -1.965401 10.131478 -0.041270 0.000015 0.000002 -0.000000 0.000000 -0.000000 
0.353317 182.821045 -0.822324 -0.691227 -15.729620 -1.590409 3.763912 1.208094 0.299575 2.512026 1.154552 0.014920 2.492589 1.203399 -0.016913 0.427542 0.835547 4.814187 8.559364 11.171040 -1.000414 -0.000003 0.000000 -0.000000 -0.000003 0.000000 -0.000000 -0.000003 0.000000 -0.000000 0.696764 0.770221 15.277777 -49.162329 -53.222897 -56.422885 -0.000015 -52.964569 -0.000017 -101.560753 0.128219 2.653750 0.796777 3.220210 -27.788719 0.800497 3.227234 -27.854655 0.202684 1.661519 -13.908057 -0.000001 0.000000 0.000002 35.234549 -17.219575 -17.236899 29.406843 28.726550 -29.411805 9.113601 14.378711 -9.922560 0.000002 0.000002 -0.000001 0.797682 3.221912 -27.804756 0.799608 3.225519 -27.838617 0.202683 1.661522 -13.908056 -0.000001 -0.000001 0.000000 0.797679 3.221922 -27.804751 0.799614 3.225526 -27.838625 0.202683 1.661519 -13.908056 -0.000000 0.000001 0.000002 2.684954 6.814114 -27.459510 0.809069 -0.835570 -28.291873 0.202687 1.661524 -13.908058 0.000002 0.000000 0.000000 0.384001 -1.340200 -0.714149 5.049504 95.126599 -11.275536 0.000000 25.762439 0.000000 -50.049198 -3.934602 -9.643348 3.635312 -6.110994 61.464497 7.728631 -6.904488 96.464469 2.305155 -5.174771 47.998765 -0.000003 -0.000001 0.000002 40.606626 -3.110500 26.124237 -37.849476 -44.265001 -46.874943 -12.282895 -22.415199 -17.633366 0.000000 -0.000001 -0.000000 3.635326 -6.110999 61.464504 7.728590 -6.904438 96.464456 2.305152 -5.174784 47.998758 -0.000001 -0.000001 0.000000 3.635327 -6.111013 61.464504 7.728613 -6.904483 96.464456 2.305150 -5.174770 47.998755 -0.000000 -0.000002 0.000002 3.635325 -6.110992 61.464504 7.728611 -6.904466 96.464456 2.305122 -5.174775 47.998751 0.000001 0.000002 -0.000001 -37.408536 16.641073 14.002923 51.322509 4.002932 10.225424 -15.589606 1.499313 -10.716694 -0.201734 0.000003 0.000000 -0.000000 0.000001 0.000000 -33.754365 -21.182420 -11.630257 51.027558 -3.237769 -10.228760 -18.602736 -1.896805 10.074433 -0.041370 -0.000032 0.000004 -0.000000 -0.000000 -0.000000 
0.638883 182.682770 -0.687417 -0.774382 -15.659073 -1.568063 3.784660 1.191799 0.439046 2.524567 1.148990 0.119073 2.505165 1.201328 0.086832 0.385992 0.838577 4.729236 8.504677 11.084203 -1.136581 -0.000000 0.000000 0.000000 -0.000000 0.000000 0.000000 -0.000000 0.000000 0.000000 0.615000 0.701071 15.614622 -49.320267 -52.789470 -56.981294 0.000023 -53.012028 0.000021 -101.385170 0.586011 2.328176 0.796778 3.220209 -27.788719 0.800497 3.227237 -27.854655 0.202685 1.661519 -13.908056 0.000001 0.000001 0.000001 35.234555 -17.219580 -17.236904 29.406847 28.726550 -29.411799 9.113601 14.378706 -9.922560 0.000002 0.000000 0.000001 0.797683 3.221913 -27.804754 0.799607 3.225521 -27.838618 0.202685 1.661521 -13.908056 0.000001 0.000001 -0.000002 0.797680 3.221926 -27.804756 0.799618 3.225528 -27.838620 0.202686 1.661520 -13.908055 0.000001 -0.000001 0.000001 2.684955 6.814118 -27.459510 0.809066 -0.835571 -28.291868 0.202686 1.661523 -13.908057 -0.000001 0.000001 0.000001 0.369393 -1.422158 -0.666043 5.523545 95.119366 -11.562501 0.000000 25.901237 -0.000001 -50.136638 -4.364340 -9.968590 3.635314 -6.110993 61.464504 7.728632 -6.904487 96.464476 2.305150 -5.174768 47.998765 0.000002 0.000000 -0.000001 40.606626 -3.110499 26.124237 -37.849476 -44.264998 -46.874950 -12.282895 -22.415199 -17.633364 -0.000001 0.000001 0.000000 3.635319 -6.110999 61.464504 7.728590 -6.904444 96.464456 2.305153 -5.174784 47.998758 0.000001 -0.000002 -0.000003 3.635329 -6.111013 61.464504 7.728612 -6.904479 96.464449 2.305147 -5.174768 47.998751 0.000001 0.000001 0.000001 3.635320 -6.110991 61.464504 7.728614 -6.904469 96.464462 2.305122 -5.174775 47.998755 0.000002 -0.000001 -0.000001 -37.306131 16.425509 13.708467 51.537626 4.278000 10.223476 -15.753017 1.534678 -10.725122 -0.203983 -0.000002 0.000003 -0.000000 0.000001 0.000000 -33.926489 -21.467921 -12.089503 51.270791 -2.887018 -10.225422 -18.705532 -1.842599 10.051896 -0.041180 -0.000017 0.000004 -0.000000 0.000000 0.000000 
1.174192 182.525360 -0.542823 -0.900551 -15.770429 -1.512991 3.827794 1.240953 0.636637 2.560115 1.192169 0.285730 2.540040 1.249924 0.252217 0.336111 0.846761 4.555324 8.434381 10.904689 -1.354636 -0.000001 -0.000000 -0.000001 -0.000001 -0.000000 -0.000001 -0.000001 -0.000000 -0.000001 0.583581 0.555711 16.011031 -49.491513 -52.099969 -57.558189 -0.000008 -53.078855 -0.000016 -101.260935 0.662033 1.816577 0.796778 3.220209 -27.788717 0.800498 3.227234 -27.854654 0.202687 1.661523 -13.908056 0.000002 -0.000002 -0.000002 35.234555 -17.219578 -17.236896 29.406847 28.726543 -29.411805 9.113597 14.378706 -9.922559 0.000003 0.000002 0.000001 0.797679 3.221913 -27.804758 0.799609 3.225521 -27.838618 0.202685 1.661522 -13.908056 -0.000001 -0.000001 -0.000001 0.797677 3.221926 -27.804756 0.799619 3.225528 -27.838625 0.202690 1.661516 -13.908058 -0.000001 0.000000 0.000001 2.684954 6.814116 -27.459509 0.809068 -0.835569 -28.291873 0.202685 1.661524 -13.908058 0.000000 -0.000002 -0.000001 0.367310 -1.393955 -0.854684 6.589108 95.043517 -12.554439 -0.000001 26.037706 0.000000 -49.924356 -4.684116 -10.346677 3.635320 -6.110994 61.464504 7.728633 -6.904495 96.464469 2.305154 -5.174769 47.998768 -0.000004 -0.000001 -0.000000 40.606636 -3.110500 26.124236 -37.849480 -44.264998 -46.874950 -12.282902 -22.415195 -17.633366 0.000001 -0.000001 -0.000000 3.635322 -6.110999 61.464497 7.728589 -6.904440 96.464456 2.305151 -5.174785 47.998758 -0.000004 0.000001 -0.000001 3.635329 -6.111013 61.464497 7.728612 -6.904477 96.464456 2.305150 -5.174769 47.998751 -0.000005 0.000001 -0.000001 3.635329 -6.110992 61.464504 7.728612 -6.904464 96.464462 2.305127 -5.174773 47.998755 -0.000001 0.000000 0.000002 -37.147965 16.312472 13.340402 51.776191 4.737766 10.221323 -15.970610 1.542250 -10.718330 -0.209135 0.000000 -0.000002 0.000000 0.000001 0.000000 -34.106833 -21.483098 -12.546628 51.522463 -2.535885 -10.221621 -18.727434 -1.815386 10.104181 -0.040975 0.000020 0.000002 -0.000000 0.000000 0.000000 
